# xmcd CD database file
#
# Track frame offsets:
#	150
#	16160
#	31212
#	50409
#	65407
#	80665
#	92399
#	109448
#	123136
#	137335
#	152994
#	170059
#	185511
#	198021
#	217381
#	230708
#
# Disc length: 3376 seconds
#
# Revision: 1
# Processed by: cddbd v1.4PL0 Copyright (c) Steve Scherf et al.
# Submitted via: CDex 1.40Release
#
DISCID=db0d2e10
DTITLE=Cooder Graw - Live at Billy Bobs
DYEAR=2002
DGENRE=Country
TTITLE0=Llano Estacado
TTITLE1=New Dress
TTITLE2=Shifting Gears
TTITLE3=King of the Dairy Queen
TTITLE4=God Only Knows
TTITLE5=Salty Boogie
TTITLE6=This Hurt
TTITLE7=Dirty Little Hometown Girl
TTITLE8=Better Days
TTITLE9=Angry Cockroaches
TTITLE10=Boogaloo
TTITLE11=Wicked Witch of the West
TTITLE12=18 Wheels of Loving
TTITLE13=Motel Lights
TTITLE14=Willie's Guitar
TTITLE15=State Line
EXTD=YEAR: 2002 ID3G: 2
EXTT0=
EXTT1=
EXTT2=
EXTT3=
EXTT4=
EXTT5=
EXTT6=
EXTT7=
EXTT8=
EXTT9=
EXTT10=
EXTT11=
EXTT12=
EXTT13=
EXTT14=
EXTT15=
PLAYORDER=
